<svg width="13" height="11" viewBox="0 0 13 11" fill="none" xmlns="http://www.w3.org/2000/svg">
<rect x="13" y="5" width="1" height="1" transform="rotate(-180 13 5)" fill="black"/>
<rect x="12" y="5" width="1" height="1" transform="rotate(-180 12 5)" fill="black"/>
<rect x="12" y="6" width="1" height="1" transform="rotate(-180 12 6)" fill="black"/>
<rect x="11" y="7" width="1" height="1" transform="rotate(-180 11 7)" fill="black"/>
<rect x="11" y="5" width="1" height="1" transform="rotate(-180 11 5)" fill="black"/>
<rect x="10" y="8" width="1" height="1" transform="rotate(-180 10 8)" fill="black"/>
<rect x="9" y="9" width="1" height="1" transform="rotate(-180 9 9)" fill="black"/>
<rect x="7" y="11" width="1" height="1" transform="rotate(-180 7 11)" fill="black"/>
<rect x="6" y="10" width="1" height="1" transform="rotate(-180 6 10)" fill="black"/>
<rect x="5" y="9" width="1" height="1" transform="rotate(-180 5 9)" fill="black"/>
<rect x="4" y="8" width="1" height="1" transform="rotate(-180 4 8)" fill="black"/>
<rect x="3" y="7" width="1" height="1" transform="rotate(-180 3 7)" fill="black"/>
<rect x="2" y="6" width="1" height="1" transform="rotate(-180 2 6)" fill="black"/>
<rect x="1" y="5" width="1" height="1" transform="rotate(-180 1 5)" fill="black"/>
<rect x="2" y="5" width="1" height="1" transform="rotate(-180 2 5)" fill="black"/>
<rect x="3" y="5" width="1" height="1" transform="rotate(-180 3 5)" fill="black"/>
<rect x="4" y="5" width="1" height="1" transform="rotate(-180 4 5)" fill="black"/>
<rect x="10" y="5" width="1" height="1" transform="rotate(-180 10 5)" fill="black"/>
<rect x="10" y="4" width="1" height="1" transform="rotate(-180 10 4)" fill="black"/>
<rect x="10" y="3" width="1" height="1" transform="rotate(-180 10 3)" fill="black"/>
<rect x="10" y="2" width="1" height="1" transform="rotate(-180 10 2)" fill="black"/>
<rect x="10" y="1" width="1" height="1" transform="rotate(-180 10 1)" fill="black"/>
<rect x="9" y="1" width="1" height="1" transform="rotate(-180 9 1)" fill="black"/>
<rect x="8" y="1" width="1" height="1" transform="rotate(-180 8 1)" fill="black"/>
<rect x="7" y="1" width="1" height="1" transform="rotate(-180 7 1)" fill="black"/>
<rect x="6" y="1" width="1" height="1" transform="rotate(-180 6 1)" fill="black"/>
<rect x="5" y="1" width="1" height="1" transform="rotate(-180 5 1)" fill="black"/>
<rect x="4" y="1" width="1" height="1" transform="rotate(-180 4 1)" fill="black"/>
<rect x="4" y="2" width="1" height="1" transform="rotate(-180 4 2)" fill="black"/>
<rect x="4" y="3" width="1" height="1" transform="rotate(-180 4 3)" fill="black"/>
<rect x="4" y="4" width="1" height="1" transform="rotate(-180 4 4)" fill="black"/>
<rect x="8" y="10" width="1" height="1" transform="rotate(-180 8 10)" fill="black"/>
</svg>
